<?xml version="1.0" encoding="UTF-8" standalone="no"?>
<!-- Created with Inkscape (http://www.inkscape.org/) -->

<svg
   width="34.46196mm"
   height="34.395836mm"
   viewBox="0 0 34.46196 34.395836"
   version="1.1"
   id="svg5"
   xml:space="preserve"
   xmlns:inkscape="http://www.inkscape.org/namespaces/inkscape"
   xmlns:sodipodi="http://sodipodi.sourceforge.net/DTD/sodipodi-0.dtd"
   xmlns="http://www.w3.org/2000/svg"
   xmlns:svg="http://www.w3.org/2000/svg"><sodipodi:namedview
     id="namedview7"
     pagecolor="#505050"
     bordercolor="#ffffff"
     borderopacity="1"
     inkscape:showpageshadow="0"
     inkscape:pageopacity="0"
     inkscape:pagecheckerboard="1"
     inkscape:deskcolor="#505050"
     inkscape:document-units="mm"
     showgrid="false" /><defs
     id="defs2"><rect
       x="300.64508"
       y="167.55698"
       width="451.92508"
       height="140.74783"
       id="rect1632" /><clipPath
       clipPathUnits="userSpaceOnUse"
       id="clipPath379"><rect
         style="fill:#ffffff;stroke-width:252.067"
         id="rect381"
         width="130.24998"
         height="130"
         x="162.62485"
         y="160.53081" /></clipPath></defs><g
     inkscape:label="Camada 1"
     inkscape:groupmode="layer"
     id="layer1"
     transform="translate(-253.61974,-81.524343)"><g
       inkscape:label="Camada 1"
       id="layer1-5"
       transform="matrix(0.26458333,0,0,0.26458333,210.59192,39.050568)"
       clip-path="url(#clipPath379)"
       inkscape:export-filename="logoAllpines.png"
       inkscape:export-xdpi="96"
       inkscape:export-ydpi="96"><path
         id="rect9213"
         style="fill:#3633c9;fill-opacity:1;stroke:none;stroke-opacity:1"
         d="m 227.7498,185.89214 a 39.639386,39.639386 0 0 0 -6.88282,0.60156 39.639386,39.639386 0 0 0 -6.67382,1.78906 39.639386,39.639386 0 0 0 -6.26172,2.91992 39.639386,39.639386 0 0 0 -5.66016,3.96289 39.639386,39.639386 0 0 0 -4.88672,4.88477 39.639386,39.639386 0 0 0 -3.96289,5.66016 39.639386,39.639386 0 0 0 -2.91992,6.26367 39.639386,39.639386 0 0 0 -1.78906,6.67383 39.639386,39.639386 0 0 0 -0.60157,6.88281 39.639386,39.639386 0 0 0 0.60157,6.88477 39.639386,39.639386 0 0 0 1.78906,6.67382 39.639386,39.639386 0 0 0 2.91992,6.26172 39.639386,39.639386 0 0 0 3.96289,5.66016 39.639386,39.639386 0 0 0 4.88672,4.88672 39.639386,39.639386 0 0 0 5.66016,3.96094 39.639386,39.639386 0 0 0 6.26172,2.92187 39.639386,39.639386 0 0 0 6.67382,1.78711 39.639386,39.639386 0 0 0 6.88282,0.60352 39.639386,39.639386 0 0 0 6.88281,-0.60352 39.639386,39.639386 0 0 0 6.67578,-1.78711 39.639386,39.639386 0 0 0 6.26172,-2.92187 39.639386,39.639386 0 0 0 5.66016,-3.96094 39.639386,39.639386 0 0 0 4.88476,-4.88672 39.639386,39.639386 0 0 0 3.96289,-5.66016 39.639386,39.639386 0 0 0 2.92188,-6.26172 39.639386,39.639386 0 0 0 1.78711,-6.67382 39.639386,39.639386 0 0 0 0.0352,-0.19532 39.639386,39.639386 0 0 0 0.0312,-0.19531 39.639386,39.639386 0 0 0 0.0332,-0.19531 39.639386,39.639386 0 0 0 0.0312,-0.19531 39.639386,39.639386 0 0 0 0.0293,-0.19532 39.639386,39.639386 0 0 0 0.0293,-0.19531 39.639386,39.639386 0 0 0 0.0273,-0.19531 39.639386,39.639386 0 0 0 0.0274,-0.19531 39.639386,39.639386 0 0 0 0.0254,-0.19727 39.639386,39.639386 0 0 0 0.0254,-0.19531 39.639386,39.639386 0 0 0 0.0234,-0.19727 39.639386,39.639386 0 0 0 0.0234,-0.19531 39.639386,39.639386 0 0 0 0.0234,-0.19727 39.639386,39.639386 0 0 0 0.0195,-0.19531 39.639386,39.639386 0 0 0 0.0215,-0.19726 39.639386,39.639386 0 0 0 0.0195,-0.19727 39.639386,39.639386 0 0 0 0.0176,-0.19727 39.639386,39.639386 0 0 0 0.0176,-0.19531 39.639386,39.639386 0 0 0 0.0156,-0.19726 39.639386,39.639386 0 0 0 0.0156,-0.19727 39.639386,39.639386 0 0 0 0.0137,-0.19726 39.639386,39.639386 0 0 0 0.0137,-0.19727 39.639386,39.639386 0 0 0 0.0117,-0.19727 39.639386,39.639386 0 0 0 0.0117,-0.19726 39.639386,39.639386 0 0 0 0.01,-0.19727 39.639386,39.639386 0 0 0 0.01,-0.19726 39.639386,39.639386 0 0 0 0.01,-0.19727 39.639386,39.639386 0 0 0 0.006,-0.19922 39.639386,39.639386 0 0 0 0.008,-0.19726 39.639386,39.639386 0 0 0 0.004,-0.19727 39.639386,39.639386 0 0 0 0.006,-0.19726 39.639386,39.639386 0 0 0 0.002,-0.19727 39.639386,39.639386 0 0 0 0.004,-0.19922 39.639386,39.639386 0 0 0 0,-0.19726 39.639386,39.639386 0 0 0 0.002,-0.19727 39.639386,39.639386 0 0 0 0,-0.0644 39.639386,39.639386 0 0 0 0,-0.0645 39.639386,39.639386 0 0 0 -0.002,-0.0625 39.639386,39.639386 0 0 0 0,-0.0645 39.639386,39.639386 0 0 0 0,-0.0644 39.639386,39.639386 0 0 0 0,-0.0645 39.639386,39.639386 0 0 0 -0.002,-0.0644 39.639386,39.639386 0 0 0 0,-0.0625 39.639386,39.639386 0 0 0 0,-0.0644 39.639386,39.639386 0 0 0 -0.002,-0.0645 39.639386,39.639386 0 0 0 -0.002,-0.0645 39.639386,39.639386 0 0 0 0,-0.0644 39.639386,39.639386 0 0 0 -0.002,-0.0625 39.639386,39.639386 0 0 0 0,-0.0644 39.639386,39.639386 0 0 0 -0.002,-0.0645 39.639386,39.639386 0 0 0 -0.002,-0.0645 39.639386,39.639386 0 0 0 -0.002,-0.0644 39.639386,39.639386 0 0 0 -0.002,-0.0625 39.639386,39.639386 0 0 0 -0.002,-0.0645 39.639386,39.639386 0 0 0 -0.002,-0.0644 39.639386,39.639386 0 0 0 -0.002,-0.0644 39.639386,39.639386 0 0 0 -0.002,-0.0625 39.639386,39.639386 0 0 0 -0.002,-0.0645 39.639386,39.639386 0 0 0 -0.004,-0.0645 39.639386,39.639386 0 0 0 -0.002,-0.0644 39.639386,39.639386 0 0 0 -0.002,-0.0645 39.639386,39.639386 0 0 0 -0.004,-0.0625 39.639386,39.639386 0 0 0 -0.002,-0.0644 39.639386,39.639386 0 0 0 -0.004,-0.0644 39.639386,39.639386 0 0 0 -0.002,-0.0645 39.639386,39.639386 0 0 0 -0.004,-0.0625 39.639386,39.639386 0 0 0 -0.002,-0.0645 39.639386,39.639386 0 0 0 -0.004,-0.0644 39.639386,39.639386 0 0 0 -0.004,-0.0644 39.639386,39.639386 0 0 0 -0.004,-0.0625 39.639386,39.639386 0 0 0 -0.004,-0.0645 39.639386,39.639386 0 0 0 -0.20117,-2.29687 39.639386,39.639386 0 0 0 -0.33398,-2.28125 39.639386,39.639386 0 0 0 -0.4668,-2.25782 39.639386,39.639386 0 0 0 -0.5957,-2.22851 39.639386,39.639386 0 0 0 -0.72461,-2.1875 39.639386,39.639386 0 0 0 -0.85352,-2.14453 39.639386,39.639386 0 0 0 -0.97265,-2.08789 39.639386,39.639386 0 0 0 -1.09571,-2.03125 39.639386,39.639386 0 0 0 -1.20898,-1.96094 39.639386,39.639386 0 0 0 -1.32227,-1.89063 39.639386,39.639386 0 0 0 -1.43164,-1.80859 39.639386,39.639386 0 0 0 -1.53125,-1.7207 39.639386,39.639386 0 0 0 -1.63086,-1.63086 39.639386,39.639386 0 0 0 -1.72265,-1.53321 39.639386,39.639386 0 0 0 -1.8086,-1.42968 39.639386,39.639386 0 0 0 -1.88867,-1.32227 39.639386,39.639386 0 0 0 -1.96289,-1.21094 39.639386,39.639386 0 0 0 -2.0293,-1.09375 39.639386,39.639386 0 0 0 -2.08984,-0.97461 39.639386,39.639386 0 0 0 -2.14258,-0.85156 39.639386,39.639386 0 0 0 -2.18945,-0.72656 39.639386,39.639386 0 0 0 -2.22657,-0.5957 39.639386,39.639386 0 0 0 -2.25976,-0.4668 39.639386,39.639386 0 0 0 -2.28125,-0.33398 39.639386,39.639386 0 0 0 -2.29688,-0.20118 39.639386,39.639386 0 0 0 -2.30468,-0.0664 z" /><path
         id="path12435"
         style="fill:#3633c9;fill-opacity:1;stroke:none;stroke-opacity:1"
         d="m 162.62479,160.53081 v 130 H 292.8748 v -130 z m 65.12501,10.09375 c 0.94764,0 1.89031,0.0229 2.82617,0.0703 0.93586,0.0474 1.86419,0.11917 2.78711,0.21289 0.92292,0.0937 1.83921,0.20879 2.74804,0.34766 0.90884,0.13886 1.81149,0.30152 2.70508,0.48437 0.8936,0.18285 1.77905,0.38759 2.65625,0.61328 0.87721,0.22569 1.74581,0.47091 2.60547,0.73829 0.85967,0.26737 1.70981,0.55536 2.55078,0.86328 0.84098,0.30791 1.67301,0.63707 2.49414,0.98437 0.82114,0.34731 1.6315,0.71407 2.43164,1.09961 0.80015,0.38554 1.58918,0.79026 2.36719,1.21289 0.77801,0.42263 1.54606,0.86175 2.30078,1.32031 0.75472,0.45857 1.49628,0.93633 2.22657,1.42969 0.73028,0.49336 1.4496,1.0023 2.15429,1.5293 0.7047,0.52699 1.39627,1.07137 2.07422,1.63086 0.67796,0.55948 1.34212,1.13574 1.99219,1.72656 0.65006,0.59082 1.28522,1.19539 1.90625,1.81641 0.62103,0.62101 1.22752,1.25815 1.81836,1.9082 0.59084,0.65005 1.16511,1.31425 1.72461,1.99219 0.5595,0.67794 1.10385,1.36954 1.63086,2.07422 0.52701,0.70468 1.03788,1.42207 1.53125,2.15234 0.49337,0.73027 0.96915,1.47381 1.42773,2.22852 0.45858,0.7547 0.89963,1.52083 1.32227,2.29882 0.42264,0.778 0.82734,1.56705 1.21289,2.36719 0.38555,0.80014 0.75229,1.61052 1.09961,2.43164 0.34731,0.82113 0.6745,1.65318 0.98242,2.49414 0.30792,0.84097 0.5959,1.69113 0.86328,2.55078 0.26739,0.85966 0.51454,1.72828 0.74024,2.60547 0.22569,0.8772 0.43042,1.76267 0.61328,2.65625 0.18285,0.89359 0.34355,1.79625 0.48242,2.70508 0.13887,0.90883 0.25588,1.82513 0.34961,2.74805 0.0937,0.92292 0.1635,1.85125 0.21094,2.78711 0.0474,0.93586 0.0723,1.87852 0.0723,2.82617 0,14.33692 -0.0312,54.87891 -0.0312,54.87891 0,0 -38.88915,0.0293 -54.87695,0.0293 -0.94765,0 -1.89032,-0.0248 -2.82618,-0.0723 -0.93585,-0.0474 -1.86418,-0.11721 -2.78711,-0.21094 -0.92292,-0.0937 -1.83921,-0.21074 -2.74804,-0.34961 -0.90883,-0.13887 -1.81149,-0.29956 -2.70508,-0.48242 -0.89359,-0.18286 -1.77905,-0.38758 -2.65625,-0.61328 -0.8772,-0.2257 -1.7458,-0.47285 -2.60547,-0.74024 -0.85966,-0.26738 -1.7098,-0.55535 -2.55078,-0.86328 -0.84098,-0.30792 -1.673,-0.63511 -2.49414,-0.98242 -0.82114,-0.34731 -1.63149,-0.71406 -2.43164,-1.09961 -0.80015,-0.38555 -1.58918,-0.79025 -2.36719,-1.21289 -0.77801,-0.42264 -1.54411,-0.86368 -2.29883,-1.32226 -0.75472,-0.45858 -1.49823,-0.93437 -2.22851,-1.42774 -0.73028,-0.49337 -1.44765,-1.00424 -2.15235,-1.53125 -0.70469,-0.52701 -1.39626,-1.07136 -2.07422,-1.63086 -0.67795,-0.5595 -1.34212,-1.13377 -1.99218,-1.72461 -0.65007,-0.59083 -1.28718,-1.19733 -1.90821,-1.81836 -0.62102,-0.62102 -1.22752,-1.25814 -1.81836,-1.9082 -0.59083,-0.65006 -1.16511,-1.31423 -1.72461,-1.99219 -0.55949,-0.67795 -1.10385,-1.36952 -1.63085,-2.07422 -0.52701,-0.70469 -1.03789,-1.42206 -1.53126,-2.15234 -0.49336,-0.73028 -0.96915,-1.47184 -1.42773,-2.22656 -0.45858,-0.75472 -0.89962,-1.52277 -1.32227,-2.30078 -0.42264,-0.77801 -0.82733,-1.56704 -1.21289,-2.36719 -0.38555,-0.80015 -0.75229,-1.6105 -1.09961,-2.43164 -0.34731,-0.82114 -0.67449,-1.65317 -0.98242,-2.49414 -0.30792,-0.84098 -0.59589,-1.69112 -0.86328,-2.55078 -0.26738,-0.85967 -0.51454,-1.72827 -0.74023,-2.60547 -0.2257,-0.87721 -0.43043,-1.76266 -0.61328,-2.65625 -0.18286,-0.8936 -0.34356,-1.79625 -0.48243,-2.70508 -0.13886,-0.90883 -0.25588,-1.82513 -0.34961,-2.74805 -0.0937,-0.92292 -0.16349,-1.85125 -0.21093,-2.78711 -0.0474,-0.93586 -0.0723,-1.87852 -0.0723,-2.82617 0,-0.94765 0.0248,-1.89031 0.0723,-2.82617 0.0474,-0.93586 0.11721,-1.86419 0.21093,-2.78711 0.0937,-0.92292 0.21075,-1.83922 0.34961,-2.74805 0.13887,-0.90883 0.29957,-1.81149 0.48243,-2.70508 0.18285,-0.89358 0.38758,-1.77905 0.61328,-2.65625 0.22569,-0.87719 0.47285,-1.74581 0.74023,-2.60547 0.26739,-0.85965 0.55536,-1.70981 0.86328,-2.55078 0.30793,-0.84096 0.63511,-1.67301 0.98242,-2.49414 0.34732,-0.82112 0.71406,-1.6315 1.09961,-2.43164 0.38556,-0.80014 0.79025,-1.58919 1.21289,-2.36719 0.42265,-0.77799 0.86369,-1.54412 1.32227,-2.29882 0.45858,-0.75471 0.93437,-1.49825 1.42773,-2.22852 0.49337,-0.73027 1.00425,-1.44766 1.53126,-2.15234 0.527,-0.70468 1.07136,-1.39628 1.63085,-2.07422 0.5595,-0.67794 1.13378,-1.34214 1.72461,-1.99219 0.59084,-0.65005 1.19734,-1.28719 1.81836,-1.9082 0.62103,-0.62102 1.25814,-1.22559 1.90821,-1.81641 0.65006,-0.59082 1.31423,-1.16708 1.99218,-1.72656 0.67796,-0.55949 1.36953,-1.10387 2.07422,-1.63086 0.7047,-0.527 1.42207,-1.03594 2.15235,-1.5293 0.73028,-0.49336 1.47379,-0.97112 2.22851,-1.42969 0.75472,-0.45856 1.52082,-0.89768 2.29883,-1.32031 0.77801,-0.42263 1.56704,-0.82735 2.36719,-1.21289 0.80015,-0.38554 1.6105,-0.7523 2.43164,-1.09961 0.82114,-0.3473 1.65316,-0.67646 2.49414,-0.98437 0.84098,-0.30792 1.69112,-0.59591 2.55078,-0.86328 0.85967,-0.26738 1.72827,-0.5126 2.60547,-0.73829 0.8772,-0.22568 1.76266,-0.43043 2.65625,-0.61328 0.89359,-0.18285 1.79625,-0.34551 2.70508,-0.48437 0.90883,-0.13887 1.82512,-0.25393 2.74804,-0.34766 0.92293,-0.0937 1.85126,-0.16545 2.78711,-0.21289 0.93586,-0.0474 1.87853,-0.0703 2.82618,-0.0703 z" /><g
         aria-label="Allpines"
         transform="translate(-18.956907,16.248777)"
         id="text1630"
         style="font-size:120px;font-family:PASTI;-inkscape-font-specification:'PASTI, Normal';white-space:pre;shape-inside:url(#rect1632);fill:#3633c9;fill-opacity:1"><g
           id="g9205"
           transform="matrix(1.1710804,0,0,1.1710804,-41.891261,-61.714913)"
           style="fill:#3633c9;fill-opacity:1"><path
             d="m 306.86079,278.07265 5.61092,-0.0592 h 7.44 c 4.8,0 6.12,-2.28 6.6,-3.96 1.79089,-4.19251 5.98518,-15.55159 5.98518,-15.55159 0,0 9.71904,0.19948 14.1449,0.19948 2.4,0 4.985,-0.42 5.465,1.26 l -0.31758,17.98961 13.0025,0.0625 c 3.59996,0.0173 5.16,-2.88 4.68,-4.68 l -0.89779,-84.29678 c -0.36,-1.68 -1.8,-5.04 -6.6,-5.04 l -12.76642,0.0355 -42.34671,94.04047 z m 27.25432,-31.8239 c 1.79029,-6.99399 14.85838,-31.06859 18.13997,-36.62816 0.44494,-0.75379 1.47685,-0.79911 1.47685,-0.79911 l -1.645,36.01898 c 0.21993,1.37915 -0.18684,2.29652 -2.19597,2.03321 z"
             id="path3294"
             sodipodi:nodetypes="ccscccccscccccccscccc"
             style="fill:#3633c9;fill-opacity:1" /><path
             d="m 370.07495,183.97243 c 0,0 0.0441,64.6841 -0.0183,93.74572 l 35.22784,0.11849 5.11801,-2.6e-4 0.042,-4.55974 v -2.88 c 0,-3.6 -1.56,-4.56 -5.16,-4.56 h -11.16 l -5.01288,-0.10364 0.0929,-5.17636 v -70.32 c 0,-3.6 -1.68,-6.24 -5.28,-6.24 z"
             id="path3296"
             sodipodi:nodetypes="cccccsscccscc"
             style="fill:#3633c9;fill-opacity:1" /><path
             d="m 411.1695,184.08429 c 0,0 0.0441,64.6841 -0.0183,93.74572 l 67.57798,0.11849 5.11801,-2.6e-4 0.042,-4.55974 v -2.88 c 0,-3.6 -1.56,-4.56 -5.16,-4.56 h -43.51014 l -5.01288,-0.10364 0.0929,-5.17636 v -70.32 c 0,-3.6 -1.68,-6.24 -5.28,-6.24 z"
             id="path3296-9"
             sodipodi:nodetypes="cccccsscccscc"
             style="font-size:120px;font-family:PASTI;-inkscape-font-specification:'PASTI, Normal';white-space:pre;shape-inside:url(#rect1632);fill:#3633c9;fill-opacity:1" /><path
             d="m 453.66488,240.44678 c -0.0184,-3.52975 1.41192,-4.47108 4.94172,-4.47108 h 11.53068 c 9.41281,0 18.23731,-7.0596 18.23731,-18.82561 v -14.35452 c 0,-11.766 -6.35364,-18.70794 -18.11965,-18.70794 h -29.06202 l -6.12096,0.009 0.003,6.10968 v 73.88028 l 15.14243,-0.0777 c 1.75817,0.0688 3.52682,-1.92617 3.55176,-3.62123 z m 4.94172,-16.35474 c -3.5298,0 -4.94172,-2.82384 -4.94172,-6.35365 v -15.53112 c 0,-3.5298 1.41192,-6.23598 4.94172,-6.23598 h 2.11788 c 5.883,0 9.05982,3.29448 9.05982,9.17748 v 9.64812 c 0,5.883 -3.17682,9.29515 -9.05982,9.29515 z"
             id="path3300"
             sodipodi:nodetypes="ssssssccccccssssssssss"
             style="fill:#3633c9;fill-opacity:1;stroke-width:0.9805" /><path
             d="m 495.17597,184.08503 c -3.6,-1e-5 -5.6621,2.55161 -5.6621,6.15161 v 81.36 l 0.0121,6.21891 5.62791,0.0211 h 7.44 c 3.6,0 5.64,-2.64 5.64,-6.24 v -81.36 l 0.009,-6.09054 -5.6493,-0.0611 z"
             id="path3302"
             sodipodi:nodetypes="sscccsscccs"
             style="fill:#3633c9;fill-opacity:1" /><path
             d="m 529.16138,227.77454 c 0.48,0 0.84,1.32 0.96,1.68 l 16.08,44.64 1.39759,3.64192 5.20241,0.0781 h 6.24 c 3.6,0 5.28,-2.64 5.28,-6.24 v -81.36 l -0.0144,-6.08254 -5.99342,-0.001 -7.43219,-0.008 c -3.6,-0.004 -5.52,2.49156 -5.52,6.09156 v 42.24 c 0,0.36 -0.12,1.56 -0.48,1.56 -0.48,0 -0.84,-1.2 -0.96,-1.56 l -16.08,-44.76 -1.47179,-3.5691 -4.6404,-0.002 -6.25562,0.008 c -3.6,0.005 -5.63219,2.48375 -5.63219,6.08375 -0.008,29.19711 0.0121,58.39423 -0.003,87.59133 4.36109,0.0105 8.72219,0.009 13.08329,0.009 3.6,0 5.88,-2.64 5.88,-6.24 v -42.12 c 0,-0.48 0,-1.68 0.36,-1.68 z"
             id="path3304"
             sodipodi:nodetypes="sccccsscccssssccccscccssss"
             style="fill:#3633c9;fill-opacity:1" /><path
             d="m 572.69472,184.18414 c -3.6,0 -6.24,2.9525 -6.24,6.5525 v 81.24 l -0.01,5.85312 6.24981,0.0207 h 28.56 c 3.6,0 5.4,-0.47386 5.4,-4.07386 v -3 l -0.0263,-4.52303 -5.3737,-0.037 h -10.92 c -3.6,0 -4.92,-1.68 -4.92,-5.28 v -18.24 c 0,-3.6 1.8,-5.16 5.4,-5.16 h 6.6 c 3.6,0 4.56,-1.08 4.56,-4.68 v -2.88 l -0.006,-4.53626 -4.5538,-0.0237 h -6.6 l -5.36138,-0.10142 -0.0386,-5.17858 v -18.36 c 0,-3.6 1.32,-5.16 4.92,-5.16 h 10.92 c 3.6,0 5.4,-1.08 5.4,-4.68 v -2.88 l -0.004,-4.86345 -5.39645,-0.009 z"
             id="path3306"
             sodipodi:nodetypes="sscccsscccssssssccccccsssscccs"
             style="fill:#3633c9;fill-opacity:1" /><path
             d="m 607.4747,201.86664 c 0,12 -0.84,17.4 6,22.92 l 24.96,20.04 c 5.64,4.44 4.56,8.04 4.56,14.04 v 1.2 c 0,3.6 -1.8,5.4 -5.4,5.4 h -5.88 c -3.6,0 -5.4,-2.76 -5.4,-8.76 0,-3.6 -1.44,-7.56 -5.04,-7.56 h -7.8 l -6.21855,-0.0175 -0.0215,6.3775 v 4.56 c 0,12 8.28,17.52 20.28,17.52 h 14.28 c 12,0 20.28,-4.32 20.28,-16.32 v -1.8 c 0,-12 1.44,-16.8 -5.4,-22.2 l -25.2,-20.16 c -5.64,-4.44 -4.92,-8.64 -4.92,-14.64 v -1.2 c 0,-3.6 1.8,-5.4 5.4,-5.4 h 5.88 c 3.6,0 3.74829,2.99182 5.4,8.76 l 0.21818,7.43978 5.42182,0.12022 h 7.8 c 3.6,0 5.64,-2.76 5.64,-6.36 v -4.56 c 0,-12 -8.28,-17.52 -20.28,-17.52 h -14.28 c -12,0 -20.28,4.32 -20.28,16.32 z"
             id="path3308"
             sodipodi:nodetypes="sccsssssscccsssssccsssssccsssssss"
             style="fill:#3633c9;fill-opacity:1" /></g></g><rect
         style="fill:none;fill-opacity:1;stroke:#3633c9;stroke-opacity:1"
         id="rect9211"
         width="564.27112"
         height="130.10765"
         x="162.63457"
         y="160.51324" /></g></g></svg>
